<svg width="31" height="30" viewBox="0 0 31 30" fill="none" xmlns="http://www.w3.org/2000/svg">
<path fill-rule="evenodd" clip-rule="evenodd" d="M26.148 15.2443C26.148 14.4471 26.0765 13.6806 25.9436 12.9448H15.3557V17.2934H21.4059C21.1453 18.6986 20.3533 19.8893 19.1626 20.6864V23.5071H22.7958C24.9216 21.55 26.148 18.668 26.148 15.2443Z" fill="#4285F4"/>
<path fill-rule="evenodd" clip-rule="evenodd" d="M15.3558 26.2307C18.3911 26.2307 20.9359 25.2241 22.7959 23.5071L19.1627 20.6864C18.1561 21.3609 16.8683 21.7595 15.3558 21.7595C12.4278 21.7595 9.94943 19.7819 9.0654 17.1247H5.30957V20.0374C7.15938 23.7115 10.9612 26.2307 15.3558 26.2307Z" fill="#34A853"/>
<path fill-rule="evenodd" clip-rule="evenodd" d="M9.06534 17.1248C8.8405 16.4502 8.71275 15.7297 8.71275 14.9888C8.71275 14.2478 8.8405 13.5273 9.06534 12.8528V9.94012H5.3095C4.54812 11.4578 4.11377 13.1747 4.11377 14.9888C4.11377 16.8028 4.54812 18.5198 5.3095 20.0374L9.06534 17.1248Z" fill="#FBBC05"/>
<path fill-rule="evenodd" clip-rule="evenodd" d="M15.3558 8.21805C17.0063 8.21805 18.4882 8.78526 19.6533 9.89923L22.8777 6.67484C20.9308 4.86079 18.386 3.74682 15.3558 3.74682C10.9612 3.74682 7.15938 6.26604 5.30957 9.94011L9.0654 12.8528C9.94943 10.1956 12.4278 8.21805 15.3558 8.21805Z" fill="#EA4335"/>
</svg>
