<svg width="14" height="16" viewBox="0 0 14 16" fill="none" xmlns="http://www.w3.org/2000/svg">
<path d="M12.4533 14.3333C12.4533 11.7533 9.88667 9.66667 6.72667 9.66667C3.56667 9.66667 1 11.7533 1 14.3333M6.72667 7.66667C7.61072 7.66667 8.45857 7.31548 9.08369 6.69036C9.70881 6.06523 10.06 5.21739 10.06 4.33333C10.06 3.44928 9.70881 2.60143 9.08369 1.97631C8.45857 1.35119 7.61072 1 6.72667 1C5.84261 1 4.99477 1.35119 4.36964 1.97631C3.74452 2.60143 3.39333 3.44928 3.39333 4.33333C3.39333 5.21739 3.74452 6.06523 4.36964 6.69036C4.99477 7.31548 5.84261 7.66667 6.72667 7.66667Z" stroke="#343A40" stroke-width="1.5" stroke-linecap="round" stroke-linejoin="round"/>
</svg>
