<svg width="70" height="70" viewBox="0 0 70 70" fill="none" xmlns="http://www.w3.org/2000/svg">
<path fill-rule="evenodd" clip-rule="evenodd" d="M49.522 56.175C51.2428 53.55 51.8845 52.2083 53.197 49.2625C43.5137 45.5875 41.9678 31.7917 51.5345 26.5125C48.6178 22.8375 44.5053 20.7083 40.6262 20.7083C37.8262 20.7083 35.9012 21.4375 34.1803 22.1083C32.722 22.6625 31.4095 23.1583 29.7762 23.1583C28.0262 23.1583 26.4803 22.6042 24.847 22.0208C23.0678 21.3792 21.2012 20.7083 18.8678 20.7083C14.522 20.7083 9.88451 23.3625 6.93867 27.9125C2.79701 34.3292 3.52617 46.3458 10.2053 56.6125C12.597 60.2875 15.8053 64.4 19.9762 64.4583C21.7262 64.4875 22.8637 63.9625 24.1178 63.4083C25.547 62.7667 27.0928 62.0667 29.8053 62.0667C32.5178 62.0375 34.0345 62.7667 35.4637 63.4083C36.6887 63.9625 37.797 64.4875 39.5178 64.4583C43.747 64.4 47.1303 59.85 49.522 56.175ZM40.0137 6.125C40.4803 9.33333 39.1678 12.5125 37.447 14.7292C35.6095 17.1208 32.4012 18.9875 29.3095 18.8708C28.7553 15.7792 30.1845 12.6 31.9345 10.4708C33.8887 8.1375 37.1845 6.32917 40.0137 6.125Z" fill="#e3e5e8"/>
</svg>
