<svg width="30" height="30" viewBox="0 0 30 30" fill="none" xmlns="http://www.w3.org/2000/svg">
<path d="M23.1 23.175L19.9375 20M23.0625 20.0375L19.9 23.2125M27.5 21.5C27.5 24.8125 24.8125 27.5 21.5 27.5C19.725 27.5 18.1375 26.725 17.0375 25.5C16.0491 24.402 15.5015 22.9774 15.5 21.5C15.5 18.1875 18.1875 15.5 21.5 15.5C23.2125 15.5 24.7625 16.225 25.8625 17.3875C25.85 17.3875 25.85 17.3875 25.8625 17.4C26.875 18.475 27.5 19.9125 27.5 21.5Z" stroke="#F40C46" stroke-width="2" stroke-miterlimit="10" stroke-linecap="round" stroke-linejoin="round"/>
<path d="M27.5 10.8625C27.5 13.325 26.8625 15.5 25.8625 17.3875C25.3025 16.792 24.6266 16.3173 23.8764 15.9927C23.1262 15.6681 22.3174 15.5004 21.5 15.5C18.1875 15.5 15.5 18.1875 15.5 21.5C15.5 23.0375 16.0875 24.4375 17.0375 25.5C16.575 25.7125 16.15 25.8875 15.775 26.0125C15.35 26.1625 14.65 26.1625 14.225 26.0125C10.6 24.775 2.5 19.6125 2.5 10.8625C2.5 7 5.6125 3.875 9.45 3.875C11.7125 3.875 13.7375 4.975 15 6.6625C15.6448 5.79852 16.4822 5.09674 17.4456 4.61287C18.409 4.129 19.4719 3.87636 20.55 3.875C24.3875 3.875 27.5 7 27.5 10.8625Z" stroke="#F40C46" stroke-width="2" stroke-linecap="round" stroke-linejoin="round"/>
</svg>
