<svg width="16" height="16" viewBox="0 0 16 16" fill="none" xmlns="http://www.w3.org/2000/svg">
<path d="M13.7268 14.6667C13.7268 12.0867 11.1601 10 8.0001 10C4.8401 10 2.27344 12.0867 2.27344 14.6667M8.0001 8.00004C8.88416 8.00004 9.73201 7.64885 10.3571 7.02373C10.9822 6.39861 11.3334 5.55076 11.3334 4.66671C11.3334 3.78265 10.9822 2.93481 10.3571 2.30968C9.73201 1.68456 8.88416 1.33337 8.0001 1.33337C7.11605 1.33337 6.2682 1.68456 5.64308 2.30968C5.01796 2.93481 4.66677 3.78265 4.66677 4.66671C4.66677 5.55076 5.01796 6.39861 5.64308 7.02373C6.2682 7.64885 7.11605 8.00004 8.0001 8.00004Z" stroke="#343a40" stroke-width="1.5" stroke-linecap="round" stroke-linejoin="round"/>
</svg>
